<svg xmlns="http://www.w3.org/2000/svg" width="120" height="120" viewBox="0 0 120 120" fill="none">
  <rect width="120" height="120" rx="24" fill="#628830"/>
  <path d="M44 38C44 34.6863 46.6863 32 50 32H70C73.3137 32 76 34.6863 76 38V82C76 85.3137 73.3137 88 70 88H50C46.6863 88 44 85.3137 44 82V38Z" fill="white" opacity="0.15"/>
  <path d="M50 45H70V75H50V45Z" fill="white" opacity="0.15"/>
  <path d="M55 55H65V65H55V55Z" fill="white"/>
  <path d="M48 42L72 42" stroke="white" stroke-width="3" stroke-linecap="round"/>
  <path d="M48 50L72 50" stroke="white" stroke-width="3" stroke-linecap="round"/>
  <path d="M48 58L72 58" stroke="white" stroke-width="3" stroke-linecap="round"/>
  <path d="M48 66L72 66" stroke="white" stroke-width="3" stroke-linecap="round"/>
  <path d="M48 74L72 74" stroke="white" stroke-width="3" stroke-linecap="round"/>
  <path d="M48 82L72 82" stroke="white" stroke-width="3" stroke-linecap="round"/>
  <path d="M38 60C38 55.5817 41.5817 52 46 52H50C54.4183 52 58 55.5817 58 60V60C58 64.4183 54.4183 68 50 68H46C41.5817 68 38 64.4183 38 60Z" fill="white" opacity="0.3"/>
  <circle cx="80" cy="40" r="12" fill="#a8d468"/>
  <path d="M76 40L79 43L84 37" stroke="#0a0a0a" stroke-width="2.5" stroke-linecap="round" stroke-linejoin="round"/>
</svg>
