<svg xmlns="http://www.w3.org/2000/svg" xmlns:xlink="http://www.w3.org/1999/xlink" width="366" zoomAndPan="magnify" viewBox="0 0 274.5 125.249995" height="167" preserveAspectRatio="xMidYMid meet" version="1.0"><defs><g/><clipPath id="3d70d1dfcd"><path d="M 0.570312 29 L 273.433594 29 L 273.433594 96 L 0.570312 96 Z M 0.570312 29 " clip-rule="nonzero"/></clipPath><clipPath id="a7a14d863a"><rect x="0" width="274" y="0" height="67"/></clipPath></defs><g clip-path="url(#3d70d1dfcd)"><g transform="matrix(1, 0, 0, 1, 0, 29)"><g clip-path="url(#a7a14d863a)"><g fill="#000000" fill-opacity="1"><g transform="translate(0.599429, 52.082533)"><g><path d="M 18.640625 -37.71875 C 22.085938 -37.71875 25.132812 -37.179688 27.78125 -36.109375 C 30.425781 -35.046875 32.722656 -33.476562 34.671875 -31.40625 L 30 -25.171875 C 28.382812 -26.859375 26.648438 -28.125 24.796875 -28.96875 C 22.941406 -29.8125 20.832031 -30.234375 18.46875 -30.234375 C 17.070312 -30.234375 15.941406 -30.082031 15.078125 -29.78125 C 14.222656 -29.476562 13.609375 -29.0625 13.234375 -28.53125 C 12.859375 -28.007812 12.671875 -27.410156 12.671875 -26.734375 C 12.671875 -25.953125 13.035156 -25.285156 13.765625 -24.734375 C 14.492188 -24.191406 15.6875 -23.734375 17.34375 -23.359375 L 23.59375 -21.953125 C 27.300781 -21.085938 30.019531 -19.828125 31.75 -18.171875 C 33.476562 -16.523438 34.34375 -14.332031 34.34375 -11.59375 C 34.34375 -8.96875 33.664062 -6.742188 32.3125 -4.921875 C 30.957031 -3.109375 29.097656 -1.738281 26.734375 -0.8125 C 24.367188 0.101562 21.671875 0.5625 18.640625 0.5625 C 16.160156 0.5625 13.789062 0.289062 11.53125 -0.25 C 9.28125 -0.789062 7.253906 -1.566406 5.453125 -2.578125 C 3.660156 -3.597656 2.144531 -4.765625 0.90625 -6.078125 L 5.578125 -12.546875 C 6.515625 -11.460938 7.664062 -10.5 9.03125 -9.65625 C 10.40625 -8.8125 11.90625 -8.144531 13.53125 -7.65625 C 15.164062 -7.164062 16.828125 -6.921875 18.515625 -6.921875 C 19.828125 -6.921875 20.925781 -7.050781 21.8125 -7.3125 C 22.695312 -7.582031 23.34375 -7.976562 23.75 -8.5 C 24.164062 -9.019531 24.375 -9.640625 24.375 -10.359375 C 24.375 -11.148438 24.09375 -11.816406 23.53125 -12.359375 C 22.96875 -12.898438 21.898438 -13.359375 20.328125 -13.734375 L 13.453125 -15.25 C 11.347656 -15.738281 9.476562 -16.382812 7.84375 -17.1875 C 6.21875 -18 4.9375 -19.085938 4 -20.453125 C 3.0625 -21.828125 2.59375 -23.546875 2.59375 -25.609375 C 2.59375 -27.941406 3.226562 -30.015625 4.5 -31.828125 C 5.78125 -33.648438 7.617188 -35.085938 10.015625 -36.140625 C 12.421875 -37.191406 15.296875 -37.71875 18.640625 -37.71875 Z M 18.640625 -37.71875 "/></g></g></g><g fill="#000000" fill-opacity="1"><g transform="translate(36.783694, 52.082533)"><g><path d="M 11.265625 0 L 0.5625 -37.15625 L 10.859375 -37.15625 L 17.171875 -7.828125 L 23.8125 -37.15625 L 32.59375 -37.15625 L 39.40625 -7.875 L 45.59375 -37.15625 L 55.5625 -37.15625 L 44.8125 0 L 34.28125 0 L 29.890625 -18.015625 L 28.203125 -27.078125 L 28.09375 -27.078125 L 26.453125 -18.015625 L 22.125 0 Z M 11.265625 0 "/></g></g></g><g fill="#000000" fill-opacity="1"><g transform="translate(92.889053, 52.082533)"><g><path d="M 13.796875 -37.15625 L 13.796875 0 L 4.109375 0 L 4.109375 -37.15625 Z M 13.796875 -37.15625 "/></g></g></g><g fill="#000000" fill-opacity="1"><g transform="translate(110.784245, 52.082533)"><g><path d="M 32.984375 -29.671875 L 13.796875 -29.671875 L 13.796875 -21.78125 L 29.109375 -21.78125 L 29.109375 -14.296875 L 13.796875 -14.296875 L 13.796875 0 L 4.109375 0 L 4.109375 -37.15625 L 32.984375 -37.15625 Z M 32.984375 -29.671875 "/></g></g></g><g fill="#000000" fill-opacity="1"><g transform="translate(145.224037, 52.082533)"><g><path d="M 35.359375 -37.15625 L 35.359375 -29.671875 L 23.25 -29.671875 L 23.25 0 L 13.5625 0 L 13.5625 -29.671875 L 1.40625 -29.671875 L 1.40625 -37.15625 Z M 35.359375 -37.15625 "/></g></g></g><g fill="#000000" fill-opacity="1"><g transform="translate(181.295548, 52.082533)"><g><path d="M 18.640625 -37.71875 C 22.085938 -37.71875 25.132812 -37.179688 27.78125 -36.109375 C 30.425781 -35.046875 32.722656 -33.476562 34.671875 -31.40625 L 30 -25.171875 C 28.382812 -26.859375 26.648438 -28.125 24.796875 -28.96875 C 22.941406 -29.8125 20.832031 -30.234375 18.46875 -30.234375 C 17.070312 -30.234375 15.941406 -30.082031 15.078125 -29.78125 C 14.222656 -29.476562 13.609375 -29.0625 13.234375 -28.53125 C 12.859375 -28.007812 12.671875 -27.410156 12.671875 -26.734375 C 12.671875 -25.953125 13.035156 -25.285156 13.765625 -24.734375 C 14.492188 -24.191406 15.6875 -23.734375 17.34375 -23.359375 L 23.59375 -21.953125 C 27.300781 -21.085938 30.019531 -19.828125 31.75 -18.171875 C 33.476562 -16.523438 34.34375 -14.332031 34.34375 -11.59375 C 34.34375 -8.96875 33.664062 -6.742188 32.3125 -4.921875 C 30.957031 -3.109375 29.097656 -1.738281 26.734375 -0.8125 C 24.367188 0.101562 21.671875 0.5625 18.640625 0.5625 C 16.160156 0.5625 13.789062 0.289062 11.53125 -0.25 C 9.28125 -0.789062 7.253906 -1.566406 5.453125 -2.578125 C 3.660156 -3.597656 2.144531 -4.765625 0.90625 -6.078125 L 5.578125 -12.546875 C 6.515625 -11.460938 7.664062 -10.5 9.03125 -9.65625 C 10.40625 -8.8125 11.90625 -8.144531 13.53125 -7.65625 C 15.164062 -7.164062 16.828125 -6.921875 18.515625 -6.921875 C 19.828125 -6.921875 20.925781 -7.050781 21.8125 -7.3125 C 22.695312 -7.582031 23.34375 -7.976562 23.75 -8.5 C 24.164062 -9.019531 24.375 -9.640625 24.375 -10.359375 C 24.375 -11.148438 24.09375 -11.816406 23.53125 -12.359375 C 22.96875 -12.898438 21.898438 -13.359375 20.328125 -13.734375 L 13.453125 -15.25 C 11.347656 -15.738281 9.476562 -16.382812 7.84375 -17.1875 C 6.21875 -18 4.9375 -19.085938 4 -20.453125 C 3.0625 -21.828125 2.59375 -23.546875 2.59375 -25.609375 C 2.59375 -27.941406 3.226562 -30.015625 4.5 -31.828125 C 5.78125 -33.648438 7.617188 -35.085938 10.015625 -36.140625 C 12.421875 -37.191406 15.296875 -37.71875 18.640625 -37.71875 Z M 18.640625 -37.71875 "/></g></g></g><g fill="#000000" fill-opacity="1"><g transform="translate(217.36721, 52.082533)"><g><path d="M 37.890625 0 L 27.921875 0 L 25.328125 -8.390625 L 12.609375 -8.390625 L 9.96875 0 L 0.21875 0 L 13.28125 -37.15625 L 24.890625 -37.15625 Z M 14.40625 -14.96875 L 23.53125 -14.96875 L 18.96875 -30 Z M 14.40625 -14.96875 "/></g></g></g><g fill="#000000" fill-opacity="1"><g transform="translate(255.464835, 52.082533)"><g><path d="M 13.796875 -37.15625 L 13.796875 0 L 4.109375 0 L 4.109375 -37.15625 Z M 13.796875 -37.15625 "/></g></g></g></g></g></g></svg>